<?xml version="1.0" encoding="utf-8"?>
<!-- Generator: Adobe Illustrator 16.0.0, SVG Export Plug-In . SVG Version: 6.00 Build 0)  -->
<!DOCTYPE svg PUBLIC "-//W3C//DTD SVG 1.1//EN" "http://www.w3.org/Graphics/SVG/1.1/DTD/svg11.dtd">
<svg version="1.1" id="Layer_1" xmlns="http://www.w3.org/2000/svg" xmlns:xlink="http://www.w3.org/1999/xlink" x="0px" y="0px"
	 width="432px" height="180px" viewBox="0 0 432 180" enable-background="new 0 0 432 180" xml:space="preserve">
<g>
	<g>
		
			<linearGradient id="SVGID_1_" gradientUnits="userSpaceOnUse" x1="286.9561" y1="-158.1709" x2="958.1533" y2="-158.1709" gradientTransform="matrix(0.6791 0 0 -0.6791 -204.8298 -42.1914)">
			<stop  offset="0.0015" style="stop-color:#DA8CFF"/>
			<stop  offset="1" style="stop-color:#9A55FF"/>
		</linearGradient>
		<path fill="url(#SVGID_1_)" d="M68.05,62.699l-31.987-15.96c-0.815-0.407-1.698-0.407-2.513,0L1.562,62.699
			C0.611,63.174,0,64.193,0,65.211c0,1.086,0.611,2.038,1.562,2.513l31.987,16.028c0.408,0.204,0.815,0.271,1.291,0.271
			c0.407,0,0.883-0.068,1.291-0.271l31.987-15.96c0.951-0.475,1.562-1.426,1.562-2.513C69.612,64.193,69,63.174,68.05,62.699z
			 M34.772,78.115L9.101,65.211l25.671-12.836l25.671,12.836L34.772,78.115z"/>
	</g>
</g>
<g>
	<g>
		
			<linearGradient id="SVGID_2_" gradientUnits="userSpaceOnUse" x1="286.9551" y1="-217.0322" x2="958.1588" y2="-217.0322" gradientTransform="matrix(0.6791 0 0 -0.6791 -204.8298 -42.1914)">
			<stop  offset="0.0015" style="stop-color:#DA8CFF"/>
			<stop  offset="1" style="stop-color:#9A55FF"/>
		</linearGradient>
		<path fill="url(#SVGID_2_)" d="M69.272,95.977c-0.679-1.358-2.377-1.97-3.803-1.291l-30.697,15.417L4.075,94.686
			c-1.358-0.679-3.056-0.135-3.803,1.291c-0.679,1.357-0.136,3.057,1.291,3.803l31.987,15.96c0.408,0.204,0.815,0.272,1.291,0.272
			c0.407,0,0.883-0.068,1.291-0.272l31.987-15.96C69.408,99.033,69.951,97.334,69.272,95.977z"/>
	</g>
</g>
<g>
	<g>
		
			<linearGradient id="SVGID_3_" gradientUnits="userSpaceOnUse" x1="286.9551" y1="-193.4902" x2="958.1619" y2="-193.4902" gradientTransform="matrix(0.6791 0 0 -0.6791 -204.8298 -42.1914)">
			<stop  offset="0.0015" style="stop-color:#DA8CFF"/>
			<stop  offset="1" style="stop-color:#9A55FF"/>
		</linearGradient>
		<path fill="url(#SVGID_3_)" d="M69.272,79.949c-0.679-1.358-2.377-1.97-3.803-1.291L34.772,94.074L4.075,78.726
			c-1.358-0.679-3.056-0.136-3.803,1.291c-0.679,1.358-0.136,3.056,1.291,3.803l31.987,15.959c0.408,0.204,0.815,0.271,1.291,0.271
			c0.407,0,0.883-0.067,1.291-0.271L68.05,83.752C69.408,83.073,69.951,81.375,69.272,79.949z"/>
	</g>
</g>
<g>
	<linearGradient id="SVGID_4_" gradientUnits="userSpaceOnUse" x1="-149.0405" y1="-49.3447" x2="590.9595" y2="309.6553">
		<stop  offset="0" style="stop-color:#E4A9FF"/>
		<stop  offset="1" style="stop-color:#A900EA"/>
	</linearGradient>
	<path fill="url(#SVGID_4_)" d="M95.795,44.192c4.998-0.816,12.443-1.428,20.707-1.428c10.199,0,17.34,1.53,22.236,5.406
		c4.08,3.264,6.324,8.058,6.324,14.382c0,8.772-6.223,14.791-12.139,16.934v0.306c4.795,1.938,7.447,6.528,9.181,12.853
		c2.142,7.752,4.284,16.729,5.61,19.381h-15.912c-1.123-1.938-2.755-7.549-4.795-16.015c-1.836-8.568-4.794-10.915-11.119-11.017
		h-4.691v27.031H95.795V44.192z M111.197,73.773h6.12c7.753,0,12.343-3.876,12.343-9.895c0-6.324-4.284-9.486-11.425-9.588
		c-3.774,0-5.916,0.306-7.038,0.51V73.773z"/>
	<linearGradient id="SVGID_5_" gradientUnits="userSpaceOnUse" x1="-137.5767" y1="-72.9751" x2="602.4234" y2="286.0249">
		<stop  offset="0" style="stop-color:#E4A9FF"/>
		<stop  offset="1" style="stop-color:#A900EA"/>
	</linearGradient>
	<path fill="url(#SVGID_5_)" d="M173.211,94.379l-4.896,17.646h-16.117l21.014-68.751h20.4l21.319,68.751h-16.729l-5.304-17.646
		H173.211z M190.653,82.75l-4.284-14.587c-1.225-4.08-2.448-9.181-3.469-13.26h-0.203c-1.021,4.08-2.041,9.283-3.162,13.26
		l-4.08,14.587H190.653z"/>
	<linearGradient id="SVGID_6_" gradientUnits="userSpaceOnUse" x1="-123.8184" y1="-101.335" x2="616.1817" y2="257.665">
		<stop  offset="0" style="stop-color:#E4A9FF"/>
		<stop  offset="1" style="stop-color:#A900EA"/>
	</linearGradient>
	<path fill="url(#SVGID_6_)" d="M224.106,43.274h42.026v12.75h-26.42v15.709h24.686v12.648h-24.686v27.644h-15.606V43.274z"/>
	<linearGradient id="SVGID_7_" gradientUnits="userSpaceOnUse" x1="-113.5771" y1="-122.4443" x2="626.4229" y2="236.5557">
		<stop  offset="0" style="stop-color:#E4A9FF"/>
		<stop  offset="1" style="stop-color:#A900EA"/>
	</linearGradient>
	<path fill="url(#SVGID_7_)" d="M277.86,43.274h42.026v12.75h-26.42v15.709h24.686v12.648h-24.686v27.644H277.86V43.274z"/>
	<linearGradient id="SVGID_8_" gradientUnits="userSpaceOnUse" x1="-105.8535" y1="-138.3662" x2="634.1465" y2="220.6338">
		<stop  offset="0" style="stop-color:#E4A9FF"/>
		<stop  offset="1" style="stop-color:#A900EA"/>
	</linearGradient>
	<path fill="url(#SVGID_8_)" d="M331.613,43.274h15.606v55.695h27.338v13.057h-42.944V43.274z"/>
	<linearGradient id="SVGID_9_" gradientUnits="userSpaceOnUse" x1="-93.3677" y1="-164.1021" x2="646.6324" y2="194.8979">
		<stop  offset="0" style="stop-color:#E4A9FF"/>
		<stop  offset="1" style="stop-color:#A900EA"/>
	</linearGradient>
	<path fill="url(#SVGID_9_)" d="M424.639,82.954h-25.298v16.321h28.256v12.75h-43.862V43.274h42.434v12.75h-26.827v14.28h25.298
		V82.954z"/>
</g>
</svg>
